<?xml version="1.0" standalone="no"?>
<!DOCTYPE svg PUBLIC "-//W3C//DTD SVG 20010904//EN"
 "http://www.w3.org/TR/2001/REC-SVG-20010904/DTD/svg10.dtd">
<svg version="1.0" xmlns="http://www.w3.org/2000/svg"
 width="1024.000000pt" height="1024.000000pt" viewBox="0 0 1024.000000 1024.000000"
 preserveAspectRatio="xMidYMid meet">

<g transform="translate(0.000000,1024.000000) scale(0.100000,-0.100000)"
fill="#000000" stroke="none">
<path d="M4890 8073 c-513 -54 -951 -205 -1346 -465 -561 -368 -954 -850
-1172 -1438 -257 -689 -237 -1493 53 -2165 230 -536 628 -1003 1110 -1306 117
-74 285 -163 420 -222 508 -225 1133 -294 1685 -186 467 92 837 257 1195 536
409 319 732 734 920 1183 106 253 185 561 216 840 18 167 16 517 -5 670 -115
854 -591 1607 -1321 2092 -159 106 -422 241 -586 302 -197 72 -420 125 -647
151 -114 14 -425 18 -522 8z m616 -364 c169 -25 246 -45 406 -104 101 -37 134
-54 158 -81 51 -58 52 -115 3 -160 -42 -39 -100 -33 -214 22 -238 116 -341
133 -592 93 -73 -11 -181 -26 -242 -34 -214 -28 -1234 -188 -1349 -212 -45 -9
-26 9 82 81 317 210 621 327 1017 392 233 38 498 39 731 3z m985 -397 c73 -47
220 -209 262 -290 69 -132 87 -200 98 -372 13 -196 5 -760 -10 -789 -15 -26
-62 -51 -98 -51 -33 0 -88 31 -102 59 -7 12 -12 171 -14 438 -3 371 -5 424
-21 473 -46 139 -124 256 -226 338 -91 73 -106 135 -48 192 40 41 97 41 159 2z
m-1469 -219 c-80 -93 -234 -239 -271 -257 -71 -37 -127 -49 -460 -96 -189 -27
-369 -56 -400 -64 -210 -54 -335 -173 -479 -453 -40 -78 -78 -145 -84 -149
-17 -11 -4 387 16 459 45 164 155 296 311 372 106 52 142 60 550 120 535 79
769 114 795 118 75 13 75 11 22 -50z m962 -63 c105 -27 185 -71 270 -151 75
-70 143 -173 179 -269 19 -51 21 -82 25 -387 4 -352 2 -366 -43 -383 -50 -19
-78 3 -113 89 -37 90 -108 166 -189 204 -46 21 -61 22 -333 22 -274 0 -287 -1
-341 -23 -81 -33 -141 -90 -184 -174 l-35 -71 0 -144 c0 -130 2 -149 22 -184
33 -60 100 -83 165 -58 40 15 78 53 134 136 77 113 118 133 273 133 123 0 164
-16 232 -89 63 -68 101 -81 230 -81 117 0 158 -13 174 -56 6 -14 10 -156 10
-319 l0 -293 -132 -4 c-125 -3 -136 -5 -182 -32 -99 -58 -153 -122 -181 -212
-15 -49 -15 -103 1 -341 6 -89 24 -123 63 -123 12 0 21 -6 21 -15 0 -31 103
-30 106 1 0 5 6 28 13 52 6 23 9 47 6 52 -3 5 1 30 10 55 8 25 15 72 15 105 0
101 47 188 114 210 17 5 57 12 89 14 l57 4 0 -113 c0 -126 -14 -246 -37 -315
-27 -82 -101 -224 -155 -295 l-53 -70 0 -520 0 -520 -115 -57 c-143 -70 -380
-150 -525 -177 -141 -26 -308 -41 -460 -41 l-121 0 0 25 c0 17 3 21 12 14 8
-6 16 -4 25 7 8 10 13 20 12 23 -1 3 4 5 12 3 7 -1 28 15 45 35 18 21 29 32
25 24 -12 -22 40 16 170 122 66 55 179 143 252 198 150 112 553 446 553 458 0
5 -19 11 -42 14 -53 7 -93 48 -109 112 l-11 45 -72 -66 c-143 -130 -316 -228
-468 -263 -293 -69 -573 -40 -813 82 -90 46 -208 128 -279 194 -52 49 -76 62
-68 39 7 -20 -31 -97 -59 -121 -24 -19 -42 -25 -80 -25 -106 0 -122 31 -126
243 l-3 158 -54 77 c-101 144 -167 303 -191 459 -15 98 -10 133 16 133 11 0
19 -4 19 -10 0 -5 5 -10 11 -10 6 0 9 16 7 38 -3 33 -6 37 -30 37 -21 -1 -28
4 -28 17 0 15 7 18 35 16 27 -2 32 -5 23 -15 -8 -10 -6 -13 6 -13 9 0 16 -8
16 -20 0 -13 7 -20 20 -20 28 0 25 -30 -2 -31 l-23 -2 23 -4 c14 -3 22 -12 22
-24 0 -12 7 -19 20 -19 14 0 20 -7 20 -21 0 -16 5 -20 20 -16 16 4 20 0 20
-19 0 -14 6 -24 14 -24 16 0 21 -13 31 -76 6 -42 7 -42 36 -31 21 8 32 9 37 1
4 -6 15 -13 25 -17 9 -3 17 -13 17 -22 0 -13 26 -21 55 -15 5 1 22 2 37 2 25
1 29 6 35 42 7 41 7 41 14 11 4 -16 7 46 8 139 1 215 -10 264 -82 342 -76 83
-117 103 -238 116 -56 5 -124 8 -150 6 l-49 -3 0 316 c0 174 3 319 6 322 4 4
25 -16 46 -42 37 -45 46 -50 104 -62 35 -7 64 -16 64 -21 0 -4 6 -8 14 -8 8 0
16 -6 19 -12 3 -9 11 -6 24 10 11 12 30 22 41 22 11 0 24 5 27 10 4 6 16 8 27
4 14 -4 18 -2 14 5 -4 6 -15 11 -24 12 -10 1 -7 4 8 8 28 8 60 -7 60 -27 0 -8
3 -12 8 -10 69 36 90 40 227 41 152 2 180 -5 242 -57 52 -43 55 -74 52 -437
l-3 -328 24 -27 c39 -42 80 -54 180 -54 l90 0 0 -85 c0 -78 -2 -88 -25 -110
-23 -24 -31 -25 -135 -25 -130 0 -186 -12 -224 -47 -58 -53 -63 -128 -12 -179
l34 -34 482 0 482 0 34 34 c53 53 43 121 -26 179 -44 37 -89 47 -222 47 -151
0 -151 0 -146 127 3 92 4 95 36 124 26 23 41 29 80 29 64 0 111 27 140 81 54
101 -19 213 -136 211 -42 0 -63 -11 -145 -75 -36 -28 -130 -30 -170 -4 -61 40
-59 24 -63 535 -3 510 -3 508 -63 596 -39 56 -83 93 -146 122 -49 23 -57 24
-340 24 l-290 0 -60 -29 c-94 -44 -141 -102 -203 -253 -11 -26 -16 -28 -72
-28 l-60 0 0 88 c0 208 90 362 262 446 66 32 94 39 283 65 116 16 237 33 270
36 235 26 390 109 599 320 132 134 214 193 309 224 91 29 86 29 288 30 155 1
199 -2 263 -19z m1528 -1437 c15 -16 32 -41 39 -58 18 -44 24 -523 10 -672
-47 -462 -224 -899 -514 -1265 -85 -107 -126 -138 -182 -138 -51 0 -105 53
-105 103 0 38 21 72 134 213 243 303 393 688 437 1119 8 84 10 189 4 350 -10
309 -10 303 21 336 45 47 118 52 156 12z m-4117 -34 c29 -26 35 -38 35 -70 0
-36 -2 -39 -29 -39 -58 0 -56 9 -56 -243 0 -292 7 -571 12 -534 5 33 22 36 24
5 l2 -23 4 23 c7 38 22 24 18 -18 -2 -22 0 -40 5 -40 5 0 11 19 13 43 2 23 4
5 5 -40 1 -46 -1 -83 -5 -83 -5 0 -31 13 -59 30 -84 48 -158 168 -200 325 -16
59 -19 107 -19 315 0 243 0 245 25 290 53 93 155 120 225 59z m3561 9 c18 -13
43 -41 56 -63 22 -39 23 -46 23 -310 0 -255 -1 -274 -23 -345 -28 -88 -80
-195 -118 -239 -35 -42 -97 -73 -137 -69 l-32 3 0 475 c0 442 1 478 18 503 44
67 149 89 213 45z m-2911 -78 c-3 -5 -12 -10 -18 -10 -7 0 -6 4 3 10 19 12 23
12 15 0z m-51 -25 c-4 -8 -10 -15 -15 -15 -4 0 -6 7 -3 15 4 8 10 15 15 15 4
0 6 -7 3 -15z m-1274 -256 c0 6 17 11 41 11 32 0 42 -4 46 -20 3 -11 9 -20 13
-20 4 0 8 -53 8 -117 0 -65 4 -143 10 -173 5 -30 16 -89 22 -130 60 -372 226
-745 452 -1016 81 -96 108 -141 108 -179 0 -87 -106 -131 -186 -78 -36 23
-172 193 -250 314 -212 326 -382 849 -368 1134 2 50 4 91 5 93 1 1 2 6 3 11 0
5 4 13 8 16 4 4 3 17 -3 28 -8 14 -8 18 0 13 6 -4 11 -3 11 3 0 5 -4 13 -10
16 -5 3 -10 12 -10 18 0 7 4 6 10 -3 7 -11 10 -4 10 28 0 35 3 42 19 42 11 0
23 5 26 10 5 8 11 7 21 -1 10 -8 14 -8 14 0z m1430 -909 c-8 -5 -22 -9 -30 -9
-10 0 -8 3 5 9 27 12 43 12 25 0z m1957 -106 c-3 -3 -12 -4 -19 -1 -8 3 -5 6
6 6 11 1 17 -2 13 -5z m-1911 -1420 c18 -14 18 -14 -6 -3 -31 14 -36 19 -24
19 6 0 19 -7 30 -16z m444 -19 c-14 -17 -30 -20 -30 -6 0 5 8 12 18 14 9 3 19
5 21 6 2 0 -2 -6 -9 -14z m-335 -23 c-6 -7 -45 9 -45 18 0 4 11 3 24 -3 14 -7
23 -13 21 -15z m414 -6 c1 6 15 11 32 12 26 1 29 -2 18 -14 -18 -22 -63 -14
-66 11 l-3 20 9 -20 c5 -11 10 -15 10 -9z m-315 -18 c-3 -4 4 -8 15 -8 11 0
22 -4 26 -10 5 -8 -93 16 -103 25 -2 2 12 3 32 2 19 0 33 -5 30 -9z m186 -52
c38 -16 31 -20 -19 -10 -17 4 -28 11 -25 16 4 6 -1 8 -13 4 -11 -4 -31 -2 -44
3 -20 8 -16 9 21 7 25 -2 61 -11 80 -20z m193 -28 c-2 -5 15 -8 39 -8 31 0 39
3 28 10 -11 7 -6 10 20 10 42 0 65 -13 55 -30 -8 -13 -90 -8 -224 15 l-76 13
82 -1 c44 -1 79 -5 76 -9z"/>
<path d="M3741 4394 c0 -11 3 -14 6 -6 3 7 2 16 -1 19 -3 4 -6 -2 -5 -13z"/>
<path d="M4914 3980 c-28 -11 -64 -58 -64 -82 0 -42 29 -89 64 -103 50 -21
305 -21 346 0 87 45 77 158 -18 185 -44 12 -298 12 -328 0z"/>
</g>
</svg>
